<svg width="267" height="267" viewBox="0 0 267 267" fill="none" xmlns="http://www.w3.org/2000/svg">
<path d="M157.123 209.803C154.917 210.823 153.89 213.532 154.664 215.706C155.354 217.643 157.185 218.344 157.369 218.411C159.316 219.12 161.818 218.463 163.026 216.444C164.284 214.339 163.601 211.649 161.796 210.295C160.455 209.29 158.617 209.113 157.123 209.803Z" fill="#00B3B3"/>
<path d="M154.664 199.229C156.877 199.311 159.091 199.393 161.304 199.475C161.285 191.136 161.438 182.522 161.796 173.651C162.428 157.983 163.638 143.12 165.239 129.137C161.058 129.219 156.877 129.301 152.696 129.383" fill="#00B3B3"/>
<path d="M74.1878 47.8021C74.829 47.1458 76.7483 48.071 77.2119 48.2944C78.0366 48.6921 79.4331 49.5353 80.6917 51.3362C82.2244 50.1191 84.2011 50.165 85.1718 51.149C86.0883 52.0775 85.7864 53.5153 85.7473 53.6873C86.1569 55.0304 86.5663 56.373 86.9762 57.7158C87.6692 58.2284 88.6595 59.0941 89.5007 60.415C90.4873 61.9651 90.8245 63.4451 90.9543 64.3449C92.6317 64.8476 94.4052 64.1129 95.1001 62.7823C95.6179 61.7904 95.4839 60.5683 94.7883 59.6205C95.4453 58.4665 95.3734 57.0992 94.6081 56.1475C93.6668 54.9765 92.1422 55.014 91.9678 55.0213C93.7309 54.8242 95.2487 53.7726 95.8722 52.2952C96.474 50.8698 96.014 49.5885 95.8784 49.2477C98.4937 46.2291 98.1208 44.1648 98.0269 43.7395C97.2778 40.3488 91.3947 37.7156 83.4353 39.224C85.3178 36.6418 85.6203 33.5385 84.2391 31.2601C83.9656 30.809 82.6786 28.7038 80.0837 28.5143C77.6906 28.3396 75.9754 29.9254 75.7129 30.176C75.4597 29.8829 74.5265 28.8777 72.8859 28.6238C70.9728 28.3278 69.5143 29.2725 69.2293 29.4652C68.9748 28.9977 68.4129 28.15 67.396 27.7315C65.753 27.0554 63.5842 27.7722 62.1368 29.6023C62.5068 27.6906 61.6422 26.0544 60.4151 25.6675C59.3036 25.3168 58.2666 26.1081 58.2017 26.1592C57.1264 27.0059 56.7799 28.7069 57.4638 30.3402C57.8526 28.7601 57.3535 27.1733 56.2341 26.4054C54.642 25.3134 52.3947 26.2883 51.3155 27.635C50.0126 29.2608 50.509 31.3063 50.5776 31.5699C50.2537 31.3579 48.3918 30.1786 46.6427 30.832C44.5537 31.6127 43.1968 34.7945 44.4293 38.21C43.2056 38.3281 41.4576 38.6279 39.5106 39.4396C38.7926 39.7389 36.7843 40.5934 35.0838 42.1448C31.8328 45.111 29.271 51.0218 31.5744 55.6069C32.0096 56.4731 32.9118 57.8762 34.8379 59.1144C34.4828 59.358 31.946 61.1631 31.6407 64.5251C31.3711 67.4955 33.0369 69.5499 33.3623 69.9358C30.823 71.9729 30.2835 75.2113 31.6227 77.1515C32.851 78.9311 35.2509 79.0271 35.5758 79.0354C34.5419 81.7779 35.4918 84.8419 37.7892 86.4134C39.8079 87.7942 42.5402 87.7997 44.6754 86.4134C44.4413 86.0856 44.1443 85.591 43.9375 84.9378C43.6812 84.1274 43.6747 83.4219 43.7057 82.9778C44.9562 81.6493 45.0452 80.7902 44.9213 80.2651C44.5998 78.9029 42.638 78.9066 40.9864 76.5761C40.5672 75.9847 39.9646 75.111 40.2485 74.3626C40.5234 73.6386 41.3802 73.6855 41.7241 72.8871C42.0745 72.0738 41.3723 71.5923 41.4782 70.6737C41.6461 69.2179 43.6867 68.0313 45.4131 67.7223C47.1616 67.4094 47.3353 68.2211 49.5941 68.2141C52.0461 68.2065 54.9273 67.2407 55.2506 65.7548C55.375 65.1827 55.1283 64.4959 55.4965 64.2792C55.7286 64.1426 55.9825 64.2977 56.7301 64.3301C56.9282 64.3387 57.1647 64.3288 57.4641 64.2792C57.4641 64.2792 58.6371 64.0844 59.6551 63.345C62.2057 61.4924 61.6696 57.0827 61.6451 56.901C61.3058 54.3781 59.8728 52.69 59.1857 51.9824C62.6208 52.9416 64.3961 54.0871 65.3896 54.9968C65.8659 55.4333 67.0909 56.6609 68.4416 56.4504C68.9182 56.3761 69.1479 56.1704 69.4355 56.2687C69.926 56.4358 70.2647 57.3779 69.8955 60.3803C70.3773 60.2406 71.7673 59.7715 72.7196 58.4493C73.8009 56.9477 73.8905 54.9379 72.9884 53.2297C73.4874 52.6113 74.0642 51.6885 74.1878 50.5071C74.3356 49.0936 73.7346 48.266 74.1878 47.8021Z" fill="#FF9E84"/>
<path d="M45.4133 88.1355C44.7565 88.5407 44.7763 90.9158 46.3971 92.0703C47.5868 92.918 49.2347 92.8197 50.3319 91.8244C47.1198 88.3639 45.8944 87.8385 45.4133 88.1355Z" fill="#FF9E84"/>
<path d="M49.1023 90.8412C48.8032 91.0448 49.528 94.0274 51.5616 94.5301C53.1456 94.9218 54.8519 93.6426 54.7588 93.3005C54.6902 93.0489 53.6866 93.4444 52.2995 93.0546C50.1995 92.4645 49.3492 90.673 49.1023 90.8412Z" fill="#FF9E84"/>
<path d="M65.5798 168.802C65.1123 168.919 62.8269 169.44 59.7259 170.225C56.9568 170.927 54.66 171.549 53.0371 171.999C55.0328 176.721 57.0077 181.64 58.9395 186.755C61.2012 192.743 63.2426 198.572 65.0878 204.217C71.4205 204.291 84.3655 203.448 95.584 194.625C97.9048 192.8 99.8531 190.868 101.486 188.969C104.601 183.23 107.717 177.491 110.832 171.753C115.505 163.145 120.177 154.538 124.85 145.93C117.252 150.562 110.716 153.732 106.159 155.767C91.756 162.2 78.8683 165.481 65.5798 168.802Z" fill="#FE5D31"/>
<path d="M43.6916 165.114C42.9545 165.526 44.4655 172.759 50.0861 177.165C52.2361 178.851 54.4256 179.682 55.9885 180.116C55.0047 177.411 54.0209 174.706 53.0371 172.001C52.0701 171.593 50.7705 170.969 49.3482 170.033C45.4146 167.444 44.1623 164.851 43.6916 165.114Z" fill="#FE5D31"/>
<path d="M43.6917 208.152C46.0058 207.424 50.7672 205.577 54.9923 201.042C58.4401 197.341 60.0118 193.481 60.7307 191.252C58.8288 192.891 54.8997 195.818 49.123 197.058C45.2509 197.889 41.939 197.663 39.7568 197.331C41.0684 200.938 42.3802 204.545 43.6917 208.152Z" fill="#FE5D31"/>
<path d="M199.615 102.893C199.938 103.828 200.942 106.327 203.55 108.057C204.961 108.993 206.334 109.369 207.239 109.533C208.305 107.975 209.371 106.418 210.436 104.86C206.829 104.204 203.222 103.548 199.615 102.893Z" fill="#FE5D31"/>
<path d="M87.3454 61.9441C86.7412 62.2922 84.9882 63.1962 82.6726 62.9279C79.5901 62.5707 77.841 60.406 77.5078 59.9766" stroke="#2D3139" stroke-miterlimit="10"/>
<path d="M74.878 65.4199C74.678 66.2788 74.3344 68.2923 75.1456 70.6087C76.3515 74.0521 79.203 75.5766 79.8256 75.8913C79.2277 77.1888 78.6299 78.4862 78.032 79.7837" stroke="#2D3139" stroke-miterlimit="10"/>
<path d="M62.26 72.2734C62.424 73.749 62.588 75.2248 62.7518 76.7003" stroke="#2D3139" stroke-miterlimit="10"/>
<path d="M82.6726 67.1094C82.8366 68.667 83.0006 70.2245 83.1644 71.7821" stroke="#2D3139" stroke-miterlimit="10"/>
<path d="M62.7517 65.6328C62.0161 66.5214 60.7309 67.8494 58.7767 68.927C56.5426 70.1588 54.4695 70.4928 53.2654 70.5953" stroke="#2D3139" stroke-miterlimit="10"/>
<path d="M48.989 86.3337C48.4844 84.6965 48.76 83.306 49.4502 82.9725C50.3521 82.5371 51.7497 84.0079 52.0464 84.3203C53.4203 85.7661 54.2408 88.111 53.5551 88.7493C53.1296 89.1453 52.1802 88.8324 51.6363 88.4551C50.5221 87.6826 50.0781 85.9262 50.6627 84.0775" stroke="#2D3139" stroke-miterlimit="10"/>
<path d="M46.7914 79.5312C45.9273 80.004 44.3824 81.0344 43.9673 82.7754C43.1493 86.2063 47.3994 89.5424 48.5788 90.4681C51.8125 93.0064 55.3419 93.5128 57.2954 93.6116" stroke="#2D3139" stroke-miterlimit="10"/>
<path d="M91.9244 68.1543C93.4093 74.3336 93.5577 79.4752 93.4328 82.9092C93.2294 88.5003 92.9768 93.657 89.6007 98.4697C88.564 99.9476 86.7734 102.433 83.497 103.816C79.3326 105.573 75.3881 104.443 72.6222 103.651C65.4731 101.603 60.8139 96.8795 58.5481 94.1714" stroke="#2D3139" stroke-miterlimit="10"/>
<path d="M88.1887 100.092C89.0692 102.3 89.9498 104.509 90.8303 106.717C91.4983 108.392 92.1663 110.067 92.8344 111.743" stroke="#2D3139" stroke-miterlimit="10"/>
<path d="M63.4895 99.0801C65.9791 102.328 67.4914 105.307 68.4081 107.442C70.3223 111.898 70.1554 113.872 69.8837 115.066C69.5578 116.499 68.9051 117.579 68.4081 118.263" stroke="#2D3139" stroke-miterlimit="10"/>
<path d="M59.2039 51.2832C59.4777 51.5127 62.6353 54.2463 62.2499 58.2766C62.1665 59.1488 61.7501 61.8261 59.3974 63.3856C57.3167 64.7646 55.1184 64.3435 54.5919 64.2426C54.1437 64.1568 51.7352 63.6953 51.5916 62.5267C51.4729 61.5617 52.9208 60.2999 53.8918 60.5505C55.1877 60.8848 56.0766 64.0267 55.2297 65.842C54.1541 68.1472 49.9645 68.9845 44.8618 67.5931" stroke="#FE5D31" stroke-miterlimit="10"/>
<path d="M44.6511 69.0001C43.1972 68.991 41.9276 69.7017 41.5026 70.7851C40.6821 72.8755 43.3361 75.509 44.3038 75.2282C44.8701 75.0639 45.2023 73.8014 44.7765 73.1863C44.08 72.1809 41.0672 72.4883 40.4153 73.8663C39.8667 75.0258 40.8554 77.2281 43.3075 78.538" stroke="#FE5D31" stroke-miterlimit="10"/>
<path d="M59.8877 37.5072C60.6086 36.9588 62.6849 35.5427 65.399 35.8392C69.3581 36.2715 72.419 40.1015 72.5955 43.5603C72.6184 44.0098 72.754 46.6712 71.115 47.5927C69.3933 48.5605 66.4232 47.2094 66.1958 45.5826C66.0128 44.2734 67.5908 42.6782 69.1109 42.5669C71.6878 42.3783 74.8277 46.4016 74.3886 49.9941C74.1253 52.1478 72.51 54.6838 70.3745 54.7719C69.0663 54.8259 67.4633 53.9652 67.2829 52.8276C67.056 51.3971 69.1031 49.6888 70.7333 49.8632C72.9355 50.0987 74.9064 53.8267 73.9101 56.5395C73.325 58.1326 71.893 58.8953 71.3481 59.1498" stroke="#FE5D31" stroke-miterlimit="10"/>
<path d="M86.9827 53.1788C87.0431 52.7314 87.2424 50.9323 86.2427 50.0319C84.4037 48.3757 79.7995 50.9247 79.9343 52.2827C80.0151 53.0983 81.8458 53.892 82.4395 53.4018C83.2259 52.7525 82.3005 49.4714 80.1622 47.6907C78.7805 46.5401 77.2364 46.3026 76.4956 46.2402" stroke="#FE5D31" stroke-miterlimit="10"/>
<path d="M87.2224 39.5808C88.0836 39.1251 90.2071 38.1642 92.7851 38.6865C95.8545 39.3086 99.6908 42.0589 99.3952 45.5823C99.1584 48.4046 96.3489 50.7888 93.7357 50.7516C92.4151 50.7328 90.6679 50.0885 90.5132 49.124C90.3036 47.8166 92.9937 45.7529 94.8118 46.3508C96.8461 47.0198 98.1488 51.1388 96.3432 53.4184C95.2574 54.7892 93.2085 55.2924 91.1849 54.6809" stroke="#FE5D31" stroke-miterlimit="10"/>
<path d="M95.3351 55.4082C95.473 55.5704 96.9689 57.3825 96.3483 59.2403C96.0519 60.1282 95.1727 61.3247 94.2702 61.1281C93.446 60.9485 92.7561 59.64 93.1373 58.9321C93.3639 58.5113 93.9685 58.304 94.4697 58.401C95.7849 58.6557 97.1397 61.1544 96.2915 62.97C95.776 64.0737 94.5328 64.7394 93.143 64.755" stroke="#FE5D31" stroke-miterlimit="10"/>
<path d="M84.8879 37.5988C85.0764 37.3553 87.4729 34.1482 86.1635 30.4709C86.0211 30.071 84.7049 26.5444 81.6258 26.1906C78.8371 25.8704 76.1927 28.3352 76.0063 30.8143C75.8649 32.6917 77.1238 34.7075 77.777 34.6094C78.4458 34.509 78.8809 32.1321 78.318 30.1575C77.8614 28.5563 76.5851 26.6451 74.6288 26.0686C70.89 24.9669 66.71 29.3406 67.2328 31.4005C67.5115 32.4995 69.2343 33.3545 70.1422 32.888C71.8477 32.0117 71.7807 25.9043 69.2257 24.781C67.7924 24.1508 65.6319 25.3108 64.0786 27.3629" stroke="#FE5D31" stroke-miterlimit="10"/>
<path d="M42.3799 38.1342C39.536 36.8586 37.6083 37.2119 36.7147 37.4808C30.8264 39.252 27.0456 48.5349 30.1782 54.6493C31.368 56.9715 33.3183 58.361 34.8069 59.1581C34.3428 59.0129 32.0722 58.3529 30.3544 59.6097C28.1486 61.2234 28.3798 64.8819 29.483 67.1058C30.0723 68.2937 30.9046 69.06 31.4644 69.4929C30.8811 69.7403 29.3125 70.5061 28.6802 72.1916C27.746 74.6816 29.4896 77.487 31.3218 78.8165C32.4691 79.649 33.6479 79.9004 34.3621 79.987" stroke="#FE5D31" stroke-miterlimit="10"/>
<path d="M33.6678 82.1172C33.6042 82.4801 33.1234 85.4954 35.0967 87.6371C37.0679 89.7765 40.6797 90.1668 43.5687 88.2306C42.9513 89.9794 43.4238 91.9148 44.7243 93.065C46.2685 94.4307 48.2209 94.018 48.4308 93.97C48.4866 94.2401 48.8451 95.8484 50.281 96.6742C51.7451 97.5161 53.7267 97.1985 55.0865 95.8171" stroke="#FE5D31" stroke-miterlimit="10"/>
<path d="M62.4328 27.7546C62.4377 25.6467 61.3958 24.0048 60.3489 23.8197C59.1414 23.6059 57.2745 25.215 57.1319 28.0148C57.0516 28.3081 56.5611 30.1419 57.0636 30.4248C57.5266 30.6858 58.8958 29.6627 58.9198 28.6257C58.9571 27.0039 55.7252 24.4562 53.0101 25.4222C51.0827 26.108 50.132 28.3094 50.1974 29.9858C50.2355 30.9638 50.6381 32.2427 51.1085 32.2701C51.6062 32.2993 52.372 30.9364 52.0252 30.0512C51.4373 28.5511 47.299 27.5183 45.1589 29.6118C43.7936 30.9471 43.4956 33.3058 44.4071 35.4718" stroke="#FE5D31" stroke-miterlimit="10"/>
<path d="M90.1016 104.889C88.862 105.913 86.2937 107.716 82.643 108.128C75.1376 108.974 69.8075 103.177 69.2036 102.499C71.4619 103.58 73.4446 104.151 74.88 104.471C77.2253 104.994 78.9945 105.389 81.2111 104.859C83.0639 104.417 84.3945 103.529 85.117 103.037C86.5234 102.081 87.4996 101.03 88.1233 100.25C88.7827 101.796 89.4422 103.342 90.1016 104.889Z" fill="#2D3139"/>
<path d="M67.6707 119.985C69.4541 121.039 73.9365 123.339 79.7216 122.69C80.6801 122.583 89.9612 121.392 93.7399 113.591C95.1763 110.625 95.2812 107.812 95.2155 106.213" stroke="#2D3139" stroke-miterlimit="10"/>
<path d="M62.6614 121.952C64.3979 123.238 68.8271 126.156 75.2534 126.625C77.1837 126.766 85.4779 127.137 92.3049 121.215C99.4503 115.016 99.4161 106.757 99.388 105.475" stroke="#2D3139" stroke-miterlimit="10"/>
<path d="M70.6216 92.1948C70.7431 91.9473 71.3741 90.7252 72.835 90.2272C74.6141 89.621 76.1099 90.6043 76.2781 90.719" stroke="#2D3139" stroke-miterlimit="10"/>
<path d="M60.0382 122.936C57.1098 124.063 51.6128 126.173 44.5605 128.838C34.9907 132.454 32.6673 133.271 30.1323 135.478C26.1495 138.947 24.6296 143.248 22.787 151.464C19.9199 164.25 21.5477 169.355 18.3272 182.452C17.175 187.138 15.8431 190.882 14.917 193.273C20.1837 194.263 24.9425 195.073 29.0829 195.733C40.9883 197.629 43.9029 197.665 46.9215 197.208C50.4361 196.676 54.8035 195.368 59.5136 192.29" stroke="#2D3139" stroke-miterlimit="10"/>
<path d="M37.0071 199.914C40.0486 206.839 43.05 214.221 45.9263 222.048C48.6132 229.36 50.9581 236.426 53.0093 243.199" stroke="#2D3139" stroke-miterlimit="10"/>
<path d="M40.6257 161.795C41.7693 163.338 43.465 165.296 45.8724 167.206C48.4876 169.28 51.0374 170.58 52.9554 171.387" stroke="#2D3139" stroke-miterlimit="10"/>
<path d="M46.6592 153.186C50.872 164.384 54.3988 174.053 57.1525 181.714C64.1469 201.174 67.4515 210.441 70.2691 223.277C71.1796 227.426 71.8145 230.883 72.2203 233.238" stroke="#2D3139" stroke-miterlimit="10"/>
<path d="M55.5786 170.402C60.3778 169.471 67.6027 167.965 76.3029 165.729C89.6516 162.299 98.9969 159.811 110.012 154.293C116.147 151.221 120.931 148.138 124.113 145.932" stroke="#2D3139" stroke-miterlimit="10"/>
<path d="M66.4407 203.602C71.085 203.064 77.177 201.875 83.9021 199.175C89.0134 197.123 93.198 194.717 96.4448 192.535" stroke="#2D3139" stroke-miterlimit="10"/>
<path d="M100.38 104.984C100.727 104.906 101.457 104.741 102.37 104.516C110.02 102.635 112.649 99.8162 120.492 97.8056C121.325 97.5923 121.802 97.4698 122.39 97.3597C126.461 96.5981 133.694 96.8286 144.034 105.107" stroke="#2D3139" stroke-miterlimit="10"/>
<path d="M183.506 124.658C187.851 116.214 192.196 107.77 196.541 99.3262" stroke="#2D3139" stroke-miterlimit="10"/>
<path d="M209.33 107.197C206.893 111.757 205.249 120.253 203.058 126.503C200.125 134.873 199.001 139.775 196.787 145.809" stroke="#2D3139" stroke-miterlimit="10"/>
<path d="M199 94.6531C199.317 92.4162 200.128 89.4046 202.444 87.029C204.655 84.76 206.991 84.3538 209.822 83.0942C212.699 81.8137 216.523 79.4581 220.397 74.7324C220.645 75.3483 220.964 76.3884 220.888 77.6838C220.75 80.0646 219.373 81.635 218.921 82.1106" stroke="#2D3139" stroke-miterlimit="10"/>
<path d="M211.051 86.2926C214.526 85.1328 217.416 84.47 219.413 84.0792C223.029 83.3715 223.886 83.4156 227.037 82.6037C230.124 81.8081 229.855 81.5818 234.169 80.3902C237.562 79.4531 239.716 79.044 242.285 79.4064C243.234 79.5402 243.999 79.7454 244.498 79.8982" stroke="#2D3139" stroke-miterlimit="10"/>
<path d="M233.186 83.3404C233.186 83.3404 239.731 81.5324 245.237 80.1432C245.549 80.0645 246.548 79.8246 247.696 80.1432C248.55 80.3802 249.724 80.9922 249.663 81.6187C249.651 81.7499 249.567 82.0518 248.926 82.3566" stroke="#2D3139" stroke-miterlimit="10"/>
<path d="M227.775 85.0625C227.854 86.1566 227.846 87.5972 227.529 89.2435C227.089 91.5271 226.233 93.2788 225.562 94.4083" stroke="#2D3139" stroke-miterlimit="10"/>
<path d="M206.378 104.246C210.392 105.153 213.462 104.882 215.478 104.491C219.76 103.662 221.197 101.93 228.267 98.8348C232.018 97.1924 232.303 97.4566 236.628 95.6376C240.429 94.0395 243.461 92.5212 245.482 91.4566C246.753 90.5552 248.751 89.0096 248.434 88.2594C248.12 87.5181 245.678 87.8657 243.515 88.2594C239.779 88.9394 234.26 90.2337 227.037 92.9322" stroke="#2D3139" stroke-miterlimit="10"/>
<path d="M230.48 87.0294C234.205 86.2552 237.977 85.4365 241.793 84.5701C244.279 84.0058 246.738 83.4317 249.171 82.8484C250.393 82.7751 251.415 83.1793 251.631 83.8322C251.861 84.5294 251.107 85.3127 250.401 86.0456C249.5 86.9817 248.548 87.4951 247.942 87.7673" stroke="#2D3139" stroke-miterlimit="10"/>
<path d="M129.031 122.812C129.687 126.092 130.343 129.371 130.999 132.65" stroke="#2D3139" stroke-miterlimit="10"/>
<path d="M155.205 200.53C155.205 200.53 152.745 189.462 152.008 164.131C151.27 138.8 152.991 129.946 152.991 129.946C152.991 129.946 157.172 128.716 165.534 128.962C165.534 128.962 160.615 183.068 161.599 200.53H158.402" stroke="#00B3B3" stroke-miterlimit="10"/>
<path d="M158.647 209.241C157.033 209.103 155.453 211.093 154.857 212.715C154.246 214.381 154.051 217.356 156.12 218.715C157.959 219.923 160.64 219.237 161.805 217.768C163.941 215.075 161.215 209.461 158.647 209.241Z" stroke="#00B3B3" stroke-miterlimit="10"/>
<path d="M69.77 239.808C98.7054 189.497 127.641 139.186 156.576 88.875C187.014 138.975 217.451 189.076 247.888 239.176C188.515 239.387 129.143 239.597 69.77 239.808Z" stroke="#2D3139" stroke-miterlimit="10" stroke-linecap="round" stroke-linejoin="round"/>
<path d="M10.2444 219.959C10.3635 220.494 11.0764 223.461 13.9334 225.124C14.3036 225.339 17.9504 227.383 21.0654 225.37C24.0092 223.466 24.9508 218.936 23.5248 217.5C22.773 216.742 21.2099 216.695 20.4506 217.376C19.4079 218.313 19.975 220.538 20.6965 221.803C22.3386 224.683 26.2404 225.146 27.0909 225.246C34.3529 226.108 40.194 218.517 40.8633 217.622" stroke="#004E75" stroke-miterlimit="10" stroke-linecap="round" stroke-linejoin="round"/>
<path d="M138.377 50.2629C139.202 50.878 143.269 53.7819 148.214 52.7222C153.64 51.5596 157.696 46.145 156.822 44.6064C156.164 43.4463 152.254 43.6969 150.92 45.5901C149.253 47.9556 151.594 52.9001 155.101 54.9357C158.243 56.7601 162.456 56.3257 165.922 53.9519" stroke="#004E75" stroke-miterlimit="10" stroke-linecap="round" stroke-linejoin="round"/>
<path d="M256.756 165.305C255.435 165.42 248.445 166.108 245.078 169.802C242.792 172.31 242.489 175.86 244.024 176.284C245.449 176.678 249.212 174.585 249.736 172.195C250.284 169.699 247.129 167.654 244.503 166.883C240.192 165.618 234.161 166.865 229.742 170.114" stroke="#004E75" stroke-miterlimit="10" stroke-linecap="round" stroke-linejoin="round"/>
</svg>
